HIERARCHY
ROOT Hips
{
	OFFSET 0.000000 0.000000 0.000000
	CHANNELS 6 Xposition Yposition Zposition Xrotation Yrotation Zrotation
	JOINT LeftUpLeg_virtual
	{
		OFFSET 0.000000 0.000000 0.000000
		CHANNELS 3 Xrotation Yrotation Zrotation
		JOINT LeftUpLeg
		{
			OFFSET 13.026900 -6.336304 -1.092800
			CHANNELS 3 Xrotation Yrotation Zrotation
			JOINT LeftLeg
			{
				OFFSET 0.524474 -46.096886 9.782700
				CHANNELS 3 Xrotation Yrotation Zrotation
				JOINT LeftFoot
				{
					OFFSET -0.524474 -53.427422 -12.948200
					CHANNELS 3 Xrotation Yrotation Zrotation
					JOINT LeftToeBase
					{
						OFFSET 0.192200 -14.009700 16.364100
						CHANNELS 3 Xrotation Yrotation Zrotation
						JOINT LeftToe_End
						{
							OFFSET -1.784700 -0.561700 9.474800
							CHANNELS 3 Xrotation Yrotation Zrotation
							End Site
							{
								OFFSET 0 0 0
							}
						}
					}
				}
			}
		}
	}
	JOINT RightUpLeg_virtual
	{
		OFFSET 0.000000 0.000000 0.000000
		CHANNELS 3 Xrotation Yrotation Zrotation
		JOINT RightUpLeg
		{
			OFFSET -12.883000 -6.336304 -1.092800
			CHANNELS 3 Xrotation Yrotation Zrotation
			JOINT RightLeg
			{
				OFFSET -0.524587 -46.096825 9.782800
				CHANNELS 3 Xrotation Yrotation Zrotation
				JOINT RightFoot
				{
					OFFSET 0.524587 -53.427383 -12.948300
					CHANNELS 3 Xrotation Yrotation Zrotation
					JOINT RightToeBase
					{
						OFFSET -0.192200 -14.009700 16.364100
						CHANNELS 3 Xrotation Yrotation Zrotation
						JOINT RightToe_End
						{
							OFFSET 1.784700 -0.561700 9.474800
							CHANNELS 3 Xrotation Yrotation Zrotation
							End Site
							{
								OFFSET 0 0 0
							}
						}
					}
				}
			}
		}
	}
	JOINT Spine_virtual
	{
		OFFSET 0.000000 0.000000 0.000000
		CHANNELS 3 Xrotation Yrotation Zrotation
		JOINT Spine
		{
			OFFSET 0.072000 7.257294 -0.789700
			CHANNELS 3 Xrotation Yrotation Zrotation
			JOINT Spine1
			{
				OFFSET 0.000000 12.508769 -0.658067
				CHANNELS 3 Xrotation Yrotation Zrotation
				JOINT Spine1_split
				{
					OFFSET 0.000000 12.508769 -0.658067
					CHANNELS 3 Xrotation Yrotation Zrotation
					JOINT Spine2
					{
						OFFSET 0.000000 12.508769 -0.658067
						CHANNELS 3 Xrotation Yrotation Zrotation
						JOINT Neck_virtual
						{
							OFFSET 0.000000 0.000000 0.000000
							CHANNELS 3 Xrotation Yrotation Zrotation
							JOINT Neck
							{
								OFFSET 0.000000 14.033295 7.520400
								CHANNELS 3 Xrotation Yrotation Zrotation
								JOINT Head
								{
									OFFSET 0.000000 8.198502 5.703100
									CHANNELS 3 Xrotation Yrotation Zrotation
									JOINT HeadTop_End
									{
										OFFSET 0.000000 17.760803 13.332701
										CHANNELS 3 Xrotation Yrotation Zrotation
										End Site
										{
											OFFSET 0 0 0
										}
									}
								}
							}
						}
						JOINT LeftShoulder_virtual
						{
							OFFSET 0.000000 0.000000 0.000000
							CHANNELS 3 Xrotation Yrotation Zrotation
							JOINT LeftShoulder
							{
								OFFSET 6.292450 5.785301 -0.669000
								CHANNELS 3 Xrotation Yrotation Zrotation
								JOINT LeftShoulder_split
								{
									OFFSET 6.292450 5.785301 -0.669000
									CHANNELS 3 Xrotation Yrotation Zrotation
									JOINT LeftArm
									{
										OFFSET 13.907140 -6.093903 1.965100
										CHANNELS 3 Xrotation Yrotation Zrotation
										JOINT LeftForeArm
										{
											OFFSET 34.140198 0.000000 0.000000
											CHANNELS 3 Xrotation Yrotation Zrotation
											JOINT LeftHand
											{
												OFFSET 40.960209 0.000000 0.000000
												CHANNELS 3 Xrotation Yrotation Zrotation
												End Site
												{
													OFFSET 0 0 0
												}
											}
										}
									}
								}
							}
						}
						JOINT RightShoulder_virtual
						{
							OFFSET 0.000000 0.000000 0.000000
							CHANNELS 3 Xrotation Yrotation Zrotation
							JOINT RightShoulder
							{
								OFFSET -6.292450 5.785301 -0.669000
								CHANNELS 3 Xrotation Yrotation Zrotation
								JOINT RightShoulder_split
								{
									OFFSET -6.292450 5.785301 -0.669000
									CHANNELS 3 Xrotation Yrotation Zrotation
									JOINT RightArm
									{
										OFFSET -13.907140 -6.093903 1.965100
										CHANNELS 3 Xrotation Yrotation Zrotation
										JOINT RightForeArm
										{
											OFFSET -34.140198 0.000000 0.000000
											CHANNELS 3 Xrotation Yrotation Zrotation
											JOINT RightHand
											{
												OFFSET -40.960209 0.000000 0.000000
												CHANNELS 3 Xrotation Yrotation Zrotation
												End Site
												{
													OFFSET 0 0 0
												}
											}
										}
									}
								}
							}
						}
					}
				}
			}
		}
	}
}
MOTION
Frames: 9
Frame Time: 0.03333333
0.454424 146.669647 8.472164 0.000000 0.000000 0.000000 3.669199 -36.395933 3.951840 -80.517999 -19.761247 30.576780 65.291370 0.514167 7.410982 13.084272 -1.265486 1.366601 0.031757 -0.007724 0.000040 0.000000 0.000000 0.000000 3.669199 -36.395933 3.951840 -126.366081 -52.061522 0.492980 120.221233 7.566185 -16.690402 24.795158 0.920808 26.644022 0.004143 0.000171 -0.000325 0.000000 0.000000 0.000000 3.669199 -36.395933 3.951840 31.614384 -5.837343 -10.380119 14.129388 0.964741 -3.082682 0.000000 0.000000 0.000000 0.000000 0.000000 0.000000 14.083559 0.916928 -3.297928 -8.677495 21.443473 -12.816596 -25.381082 13.620605 5.249197 0.000000 0.000000 0.000000 14.083559 0.916928 -3.297928 11.474072 -16.374147 4.408439 0.000000 0.000000 0.000000 -62.668816 -4.844720 -3.758209 45.767633 -24.019414 29.511120 0.000000 0.000000 0.000000 14.083559 0.916928 -3.297928 18.189207 24.092147 -9.603798 0.000000 0.000000 0.000000 -33.453122 6.374208 2.980969 -41.939223 39.311140 29.275885 0.000000 0.000000 0.000000 
0.448734 146.647308 8.427849 0.000000 0.000000 0.000000 3.719901 -36.586236 4.060331 -80.518990 -19.713645 30.573966 65.256071 0.447621 7.372141 13.057565 -1.060236 1.234722 0.022384 -0.007746 0.000012 0.000000 0.000000 0.000000 3.719901 -36.586236 4.060331 -125.842356 -52.028317 0.508559 120.014784 7.786802 -16.678424 24.409469 0.842140 26.422083 0.005020 0.000196 -0.000320 0.000000 0.000000 0.000000 3.719901 -36.586236 4.060331 31.612137 -5.867730 -10.393796 14.121951 0.959999 -3.082255 0.000000 0.000000 0.000000 0.000000 0.000000 0.000000 14.068808 0.912814 -3.297127 -8.610262 21.493190 -12.821319 -25.195736 13.750095 5.199516 0.000000 0.000000 0.000000 14.068808 0.912814 -3.297127 11.267125 -16.494273 3.552191 0.000000 0.000000 0.000000 -61.836373 -4.277149 -3.867890 45.655320 -23.778504 29.256692 0.000000 0.000000 0.000000 14.068808 0.912814 -3.297127 17.871441 24.380039 -8.840624 0.000000 0.000000 0.000000 -32.509665 6.730322 2.966682 -41.608092 38.845171 28.745691 0.000000 0.000000 0.000000 
0.445087 146.622009 8.381496 0.000000 0.000000 0.000000 3.774744 -36.722669 4.171640 -80.476048 -19.644836 30.568566 65.158789 0.423898 7.357190 13.001315 -0.954450 1.081869 0.013800 -0.007788 -0.000010 0.000000 0.000000 0.000000 3.774744 -36.722669 4.171640 -125.250179 -51.974195 0.559767 119.791382 7.989674 -16.668682 24.009785 0.758349 26.249909 0.005038 0.000171 -0.000343 0.000000 0.000000 0.000000 3.774744 -36.722669 4.171640 31.582286 -5.895277 -10.396969 14.084185 0.946256 -3.078772 0.000000 0.000000 0.000000 0.000000 0.000000 0.000000 14.024724 0.902266 -3.293470 -8.559982 21.556432 -12.797785 -24.976456 13.886571 5.176316 0.000000 0.000000 0.000000 14.024724 0.902266 -3.293470 11.087258 -16.530113 2.819711 0.000000 0.000000 0.000000 -61.258853 -3.422800 -3.756274 45.583542 -23.623773 29.096176 0.000000 0.000000 0.000000 14.024724 0.902266 -3.293470 17.522806 24.569650 -8.065062 0.000000 0.000000 0.000000 -31.766599 6.787548 2.888684 -41.306283 38.411782 28.260128 0.000000 0.000000 0.000000 
0.438582 146.595795 8.334896 0.000000 0.000000 0.000000 3.832996 -36.799181 4.283106 -80.392870 -19.575578 30.562624 65.009358 0.511124 7.403101 12.917856 -1.028747 1.016163 -0.002660 -0.007781 0.000000 0.000000 0.000000 0.000000 3.832996 -36.799181 4.283106 -124.644587 -51.896409 0.602673 119.573881 8.226748 -16.661487 23.585114 0.681800 26.154495 0.004496 0.000168 -0.000368 0.000000 0.000000 0.000000 3.832996 -36.799181 4.283106 31.535212 -5.918695 -10.391123 14.021882 0.921093 -3.071936 0.000000 0.000000 0.000000 0.000000 0.000000 0.000000 13.962297 0.883270 -3.285259 -8.535255 21.652835 -12.746681 -24.714382 14.082420 5.207962 0.000000 0.000000 0.000000 13.962297 0.883270 -3.285259 10.892939 -16.486456 2.082168 0.000000 0.000000 0.000000 -60.703484 -2.446157 -3.677439 45.522804 -23.492946 28.962341 0.000000 0.000000 0.000000 13.962297 0.883270 -3.285259 17.154386 24.738909 -7.233020 0.000000 0.000000 0.000000 -30.927428 6.665483 2.774249 -41.041367 38.023533 27.831317 0.000000 0.000000 0.000000 
0.419946 146.571716 8.284740 0.000000 0.000000 0.000000 3.893505 -36.870604 4.401572 -80.275022 -19.456518 30.550033 64.826842 0.697758 7.502824 12.748242 -1.058149 0.994818 -0.087883 -0.007721 0.000013 0.000000 0.000000 0.000000 3.893505 -36.870604 4.401572 -124.027711 -51.813969 0.656806 119.347338 8.433775 -16.656955 23.160311 0.604306 26.049187 0.003633 0.000190 -0.000378 0.000000 0.000000 0.000000 3.893505 -36.870604 4.401572 31.459062 -5.937822 -10.385936 13.939571 0.894841 -3.064070 0.000000 0.000000 0.000000 0.000000 0.000000 0.000000 13.883521 0.860882 -3.274869 -8.539699 21.727076 -12.632803 -24.434537 14.133016 5.300545 0.000000 0.000000 0.000000 13.883521 0.860882 -3.274869 10.735036 -16.337290 1.386320 0.000000 0.000000 0.000000 -60.173352 -1.363562 -3.614975 45.514851 -23.476725 28.951966 0.000000 0.000000 0.000000 13.883521 0.860882 -3.274869 16.731838 24.898379 -6.280350 0.000000 0.000000 0.000000 -30.228423 6.296628 2.609979 -40.812163 37.681341 27.458105 0.000000 0.000000 0.000000 
0.377663 146.542877 8.238537 0.000000 0.000000 0.000000 3.955486 -36.942919 4.519307 -80.143828 -19.264202 30.488943 64.711084 -0.249930 6.976745 12.522745 0.164667 0.889123 -0.104801 -0.007796 0.000037 0.000000 0.000000 0.000000 3.955486 -36.942919 4.519307 -123.457923 -51.771850 0.711292 119.142651 8.613656 -16.655712 22.733853 0.529361 25.922474 0.002738 0.000213 -0.000378 0.000000 0.000000 0.000000 3.955486 -36.942919 4.519307 31.342246 -5.943593 -10.376193 13.829170 0.878567 -3.055086 0.000000 0.000000 0.000000 0.000000 0.000000 0.000000 13.789084 0.840561 -3.264778 -8.466572 21.759485 -12.563936 -24.132032 14.143986 5.284629 0.000000 0.000000 0.000000 13.789084 0.840561 -3.264778 10.586184 -16.074437 0.690731 0.000000 0.000000 0.000000 -59.669755 -0.103451 -3.407520 45.509083 -23.467666 28.949849 0.000000 0.000000 0.000000 13.789084 0.840561 -3.264778 16.299188 25.012687 -5.338990 0.000000 0.000000 0.000000 -29.588513 5.724237 2.407798 -40.616184 37.384518 27.137580 0.000000 0.000000 0.000000 
0.335987 146.523804 8.197723 0.000000 0.000000 0.000000 4.017884 -37.013287 4.639865 -79.962541 -19.106889 30.462770 64.509798 -0.378639 6.902803 12.272586 0.437073 0.842801 -0.163490 -0.007727 -0.000013 0.000000 0.000000 0.000000 4.017884 -37.013287 4.639865 -122.917396 -51.709685 0.762045 118.940887 8.796213 -16.653980 22.327328 0.453913 25.801151 0.002055 0.000187 -0.000387 0.000000 0.000000 0.000000 4.017884 -37.013287 4.639865 31.185015 -5.938999 -10.355161 13.709092 0.874859 -3.047961 0.000000 0.000000 0.000000 0.000000 0.000000 0.000000 13.675682 0.830837 -3.256746 -8.469492 21.756096 -12.593182 -24.037159 14.197860 5.281775 0.000000 0.000000 0.000000 13.675682 0.830837 -3.256746 10.445849 -15.713986 0.015676 0.000000 0.000000 0.000000 -59.222835 1.242566 -3.173080 45.509195 -23.473424 28.963410 0.000000 0.000000 0.000000 13.675682 0.830837 -3.256746 15.883415 25.065123 -4.464581 0.000000 0.000000 0.000000 -29.019165 5.005185 2.195795 -40.450112 37.131500 26.866254 0.000000 0.000000 0.000000 
0.285006 146.511749 8.165890 0.000000 0.000000 0.000000 4.080329 -37.085031 4.760703 -79.745361 -18.940622 30.437867 64.294674 -0.604135 6.776653 11.946680 0.778834 0.731535 -0.164295 -0.007740 0.000007 0.000000 0.000000 0.000000 4.080329 -37.085031 4.760703 -122.489238 -51.664101 0.796001 118.773848 8.904632 -16.653203 21.960738 0.396608 25.645209 0.001874 0.000162 -0.000386 0.000000 0.000000 0.000000 4.080329 -37.085031 4.760703 31.007071 -5.908187 -10.303491 13.586276 0.877308 -3.036974 0.000000 0.000000 0.000000 0.000000 0.000000 0.000000 13.547666 0.831892 -3.248914 -8.410981 21.717478 -12.630167 -23.881584 14.196202 5.208120 0.000000 0.000000 0.000000 13.547666 0.831892 -3.248914 10.297268 -15.271162 -0.647829 0.000000 0.000000 0.000000 -58.848603 2.671686 -2.870554 45.518990 -23.501243 28.999720 0.000000 0.000000 0.000000 13.547666 0.831892 -3.248914 15.533889 25.035048 -3.731461 0.000000 0.000000 0.000000 -28.502868 3.868208 1.818858 -40.435488 37.112779 26.845463 0.000000 0.000000 0.000000 
0.226365 146.514923 8.143452 0.000000 0.000000 0.000000 4.142485 -37.161953 4.880245 -79.497528 -18.761725 30.414392 64.066717 -0.793468 6.670815 11.553257 1.028088 0.633698 -0.123434 -0.007709 0.000028 0.000000 0.000000 0.000000 4.142485 -37.161953 4.880245 -122.165009 -51.642705 0.829567 118.655959 9.031340 -16.654204 21.635060 0.322270 25.478551 0.002445 0.000224 -0.000320 0.000000 0.000000 0.000000 4.142485 -37.161953 4.880245 30.825194 -5.851355 -10.229045 13.456560 0.884666 -3.016208 0.000000 0.000000 0.000000 0.000000 0.000000 0.000000 13.410883 0.838441 -3.232901 -8.371553 21.656506 -12.677717 -23.753185 14.281041 5.079384 0.000000 0.000000 0.000000 13.410883 0.838441 -3.232901 10.133976 -14.753789 -1.287111 0.000000 0.000000 0.000000 -58.566386 4.199293 -2.426657 45.539644 -23.552145 29.058073 0.000000 0.000000 0.000000 13.410883 0.838441 -3.232901 15.255600 24.916175 -3.162925 0.000000 0.000000 0.000000 -28.071191 2.550428 1.403059 -40.630852 37.415988 27.169528 0.000000 0.000000 0.000000 
